<mxfile host="app.diagrams.net" modified="2024-05-17T04:50:47.218Z" agent="Mozilla/5.0 (Windows NT 10.0; Win64; x64) AppleWebKit/537.36 (KHTML, like Gecko) Chrome/124.0.0.0 Safari/537.36" etag="DztQlTUU0WEZ3Suj4APs" version="24.4.3" type="device">
  <diagram name="Page-1" id="DAvUtwFaZsy5pyObESBu">
    <mxGraphModel dx="880" dy="500" grid="1" gridSize="10" guides="1" tooltips="1" connect="1" arrows="1" fold="1" page="1" pageScale="1" pageWidth="850" pageHeight="1100" math="0" shadow="0">
      <root>
        <mxCell id="0" />
        <mxCell id="1" parent="0" />
        <mxCell id="cnUkbYnF3BYXnE4dRokI-8" value="" style="edgeStyle=orthogonalEdgeStyle;rounded=0;orthogonalLoop=1;jettySize=auto;html=1;" edge="1" parent="1" source="cnUkbYnF3BYXnE4dRokI-1" target="cnUkbYnF3BYXnE4dRokI-6">
          <mxGeometry relative="1" as="geometry" />
        </mxCell>
        <mxCell id="cnUkbYnF3BYXnE4dRokI-1" value="start" style="whiteSpace=wrap;html=1;aspect=fixed;" vertex="1" parent="1">
          <mxGeometry x="340" y="20" width="90" height="90" as="geometry" />
        </mxCell>
        <mxCell id="cnUkbYnF3BYXnE4dRokI-10" value="" style="edgeStyle=orthogonalEdgeStyle;rounded=0;orthogonalLoop=1;jettySize=auto;html=1;" edge="1" parent="1" source="cnUkbYnF3BYXnE4dRokI-4" target="cnUkbYnF3BYXnE4dRokI-5">
          <mxGeometry relative="1" as="geometry" />
        </mxCell>
        <mxCell id="cnUkbYnF3BYXnE4dRokI-4" value="Add" style="rounded=0;whiteSpace=wrap;html=1;" vertex="1" parent="1">
          <mxGeometry x="325" y="270" width="120" height="60" as="geometry" />
        </mxCell>
        <mxCell id="cnUkbYnF3BYXnE4dRokI-11" value="" style="edgeStyle=orthogonalEdgeStyle;rounded=0;orthogonalLoop=1;jettySize=auto;html=1;" edge="1" parent="1" source="cnUkbYnF3BYXnE4dRokI-5" target="cnUkbYnF3BYXnE4dRokI-7">
          <mxGeometry relative="1" as="geometry" />
        </mxCell>
        <mxCell id="cnUkbYnF3BYXnE4dRokI-5" value="display screen" style="ellipse;whiteSpace=wrap;html=1;" vertex="1" parent="1">
          <mxGeometry x="325" y="360" width="120" height="80" as="geometry" />
        </mxCell>
        <mxCell id="cnUkbYnF3BYXnE4dRokI-9" value="" style="edgeStyle=orthogonalEdgeStyle;rounded=0;orthogonalLoop=1;jettySize=auto;html=1;" edge="1" parent="1" source="cnUkbYnF3BYXnE4dRokI-6" target="cnUkbYnF3BYXnE4dRokI-4">
          <mxGeometry relative="1" as="geometry" />
        </mxCell>
        <mxCell id="cnUkbYnF3BYXnE4dRokI-6" value="User input" style="ellipse;whiteSpace=wrap;html=1;aspect=fixed;" vertex="1" parent="1">
          <mxGeometry x="345" y="150" width="80" height="80" as="geometry" />
        </mxCell>
        <mxCell id="cnUkbYnF3BYXnE4dRokI-7" value="End" style="rounded=0;whiteSpace=wrap;html=1;" vertex="1" parent="1">
          <mxGeometry x="345" y="470" width="75" height="30" as="geometry" />
        </mxCell>
      </root>
    </mxGraphModel>
  </diagram>
</mxfile>
